<svg width="80" height="16" viewBox="0 0 80 16" fill="none" xmlns="http://www.w3.org/2000/svg">
<g clip-path="url(#clip0_1_5436)">
<path d="M35.5138 2.23812V0H24.5369V2.23812H28.7535V14.3869H31.1561V2.21789L35.5138 2.23812Z" fill="white"/>
<path d="M75.3851 16L74.917 14.5747C74.8634 14.4077 74.7603 14.2601 74.6207 14.1507C74.481 14.0413 74.3113 13.9751 74.133 13.9604H72.0143C71.8545 13.9604 71.3846 14.0506 71.1778 14.7273L70.7021 16H75.3851Z" fill="white"/>
<path d="M2.34986 15.9999H7.33167L6.61166 14.5434C6.52961 14.3725 6.39911 14.2282 6.23567 14.1278C6.0877 14.039 5.92473 13.9767 5.75441 13.9438H0.218018L0.95307 15.2643C0.95307 15.2643 1.25574 15.9723 2.34986 15.9999Z" fill="white"/>
<path d="M80.0001 14.6608L74.6666 0.73182L74.646 0.671773L74.599 0.562938C74.5493 0.423909 74.4655 0.299549 74.3553 0.201213C74.245 0.102877 74.1119 0.0337006 73.968 0H71.6206C71.4265 0.0424836 71.2548 0.154656 71.1379 0.315245L65.6411 14.6608H68.2271L72.4319 3.58967L72.5295 3.42266C72.5295 3.42266 72.7173 2.92165 73.0929 3.33635L77.1456 14.6664L80.0001 14.6608Z" fill="white"/>
<path d="M55.9371 14.0889L61.4415 0.0146484H58.5878L54.4858 11.0342C54.4715 11.0657 54.451 11.0941 54.4256 11.1178C54.4001 11.1415 54.37 11.16 54.3372 11.1723C54.3043 11.1846 54.2693 11.1904 54.2342 11.1895C54.199 11.1885 54.1644 11.1807 54.1323 11.1666L54.0496 11.1115L49.9232 0.0146484H47.0657L52.54 14.0172C52.6378 14.1852 52.7919 14.3151 52.9762 14.385H55.5122C55.6813 14.3338 55.8298 14.2322 55.9371 14.0944" fill="white"/>
<path d="M10.0087 9.19524C10.0087 9.19524 10.0087 10.0247 9.44477 9.33501L2.78794 0.356775C2.58114 0 1.77465 0 1.77465 0H0V12.3437H5.52888L4.81826 11.0343C4.81826 11.0343 4.51371 10.3171 3.41959 10.2987L2.46835 10.2876V4.90474C2.59054 4.29786 2.99097 4.86244 2.99097 4.86244V4.84773L9.71924 13.9768C10.0249 14.209 10.402 14.3328 10.7889 14.328H12.2665V0.0147124H10.0106L10.0087 9.19524Z" fill="white"/>
<path d="M64.9007 14.3869V0.0147124H64.8913V0H62.47V0.0147124V14.3869V14.4163H64.8913V14.3869H64.9007Z" fill="white"/>
<path d="M23.4051 12.1635H16.3028V8.20583H21.5666L20.8484 6.60218C20.6849 6.24909 20.4725 5.99714 19.8126 5.96036H16.3028V2.23812H23.4051V0H13.8833V14.4016H23.407L23.4051 12.1635Z" fill="white"/>
<path d="M46.1522 12.1635H39.0498V8.20583H44.3136L43.5955 6.60218C43.432 6.24909 43.2195 5.99714 42.5597 5.96036H39.0498V2.23812H46.1522V0H36.6304V14.4016H46.1541L46.1522 12.1635Z" fill="white"/>
</g>
<defs>
<clipPath id="clip0_1_5436">
<rect width="80" height="16" fill="white"/>
</clipPath>
</defs>
</svg>
