<svg width="93" height="18" viewBox="0 0 93 18" fill="none" xmlns="http://www.w3.org/2000/svg">
<path d="M5.0625 8.94531C5.89093 8.94531 6.5625 8.27374 6.5625 7.44531C6.5625 6.61689 5.89093 5.94531 5.0625 5.94531C4.23407 5.94531 3.5625 6.61689 3.5625 7.44531C3.5625 8.27374 4.23407 8.94531 5.0625 8.94531Z" stroke="white" stroke-width="1.125"/>
<path d="M9.5625 7.44531C9.5625 9.93081 5.0625 14.9453 5.0625 14.9453C5.0625 14.9453 0.5625 9.93081 0.5625 7.44531C0.5625 6.25184 1.03661 5.10725 1.88052 4.26333C2.72443 3.41942 3.86903 2.94531 5.0625 2.94531C6.25597 2.94531 7.40057 3.41942 8.24448 4.26333C9.08839 5.10725 9.5625 6.25184 9.5625 7.44531Z" stroke="white" stroke-width="1.125"/>
<path d="M22.4918 9.72388V4.49823H24.2972V9.72388C24.2972 10.6275 24.1568 11.3312 23.8761 11.8349C23.3531 12.7578 22.3553 13.2192 20.8826 13.2192C19.4099 13.2192 18.4101 12.7578 17.8833 11.8349C17.6026 11.3312 17.4623 10.6275 17.4623 9.72388V4.49823H19.2676V9.72388C19.2676 10.3083 19.3368 10.7352 19.4753 11.0043C19.6906 11.4811 20.1597 11.7195 20.8826 11.7195C21.6017 11.7195 22.0688 11.4811 22.2842 11.0043C22.4226 10.7352 22.4918 10.3083 22.4918 9.72388ZM28.8249 7.93008C28.2673 7.93008 27.8847 8.16656 27.6771 8.63953C27.5694 8.88947 27.5156 9.20862 27.5156 9.59698V13H25.8775V6.72461H27.4637V7.64169C27.6752 7.31869 27.8751 7.08606 28.0635 6.94379C28.4019 6.69 28.8307 6.56311 29.3498 6.56311C29.9996 6.56311 30.5302 6.73422 30.9417 7.07645C31.357 7.41482 31.5646 7.97815 31.5646 8.76642V13H29.8804V9.17593C29.8804 8.84525 29.8362 8.59146 29.7477 8.41458C29.5862 8.09158 29.2786 7.93008 28.8249 7.93008ZM34.7773 6.71307V13H33.1104V6.71307H34.7773ZM34.7773 4.44632V5.96326H33.1104V4.44632H34.7773ZM39.2531 11.8291V13.0577L38.4745 13.0865C37.6977 13.1134 37.1671 12.9789 36.8825 12.6828C36.698 12.4944 36.6057 12.204 36.6057 11.8118V7.94162H35.729V6.77075H36.6057V5.01733H38.2322V6.77075H39.2531V7.94162H38.2322V11.2639C38.2322 11.5215 38.2649 11.683 38.3303 11.7484C38.3956 11.8099 38.5956 11.8407 38.9301 11.8407C38.9801 11.8407 39.032 11.8407 39.0858 11.8407C39.1435 11.8368 39.1993 11.833 39.2531 11.8291ZM45.69 11.1543C45.6477 11.5273 45.4535 11.906 45.1075 12.2906C44.5691 12.9019 43.8155 13.2076 42.8465 13.2076C42.0467 13.2076 41.3411 12.95 40.7297 12.4348C40.1183 11.9195 39.8126 11.0812 39.8126 9.91998C39.8126 8.83179 40.0875 7.99738 40.6374 7.41675C41.1911 6.83612 41.9082 6.54581 42.7888 6.54581C43.3117 6.54581 43.7828 6.64386 44.2019 6.83997C44.621 7.03607 44.9671 7.34561 45.2401 7.76858C45.4862 8.14157 45.6458 8.57416 45.7188 9.06634C45.7611 9.35474 45.7784 9.77002 45.7708 10.3122H41.468C41.491 10.9428 41.6891 11.385 42.062 11.6388C42.2889 11.7964 42.5619 11.8753 42.8811 11.8753C43.2195 11.8753 43.4944 11.7791 43.7059 11.5869C43.8212 11.4831 43.9231 11.3389 44.0116 11.1543H45.69ZM44.0635 9.22784C44.0366 8.79333 43.9039 8.46457 43.6655 8.24155C43.4309 8.01468 43.1387 7.90124 42.7888 7.90124C42.4081 7.90124 42.112 8.02045 41.9005 8.25885C41.6929 8.49725 41.5622 8.82025 41.5083 9.22784H44.0635ZM52.6056 4.50976V13H51.0079V12.1291C50.7734 12.502 50.5061 12.7731 50.2062 12.9423C49.9063 13.1115 49.5333 13.1961 49.0873 13.1961C48.3528 13.1961 47.7337 12.9 47.23 12.3079C46.7301 11.7119 46.4802 10.9486 46.4802 10.018C46.4802 8.94522 46.7263 8.1012 47.2185 7.48596C47.7145 6.87073 48.3759 6.56311 49.2026 6.56311C49.5833 6.56311 49.9217 6.6477 50.2177 6.81689C50.5138 6.98224 50.7542 7.21295 50.9387 7.50903V4.50976H52.6056ZM48.1759 9.89691C48.1759 10.4775 48.2913 10.9409 48.522 11.287C48.7489 11.6369 49.0949 11.8118 49.5602 11.8118C50.0255 11.8118 50.3792 11.6388 50.6215 11.2927C50.8637 10.9467 50.9849 10.4987 50.9849 9.94882C50.9849 9.17978 50.7907 8.62991 50.4023 8.29922C50.1639 8.09927 49.8871 7.9993 49.5717 7.9993C49.0911 7.9993 48.7373 8.18195 48.5105 8.54724C48.2874 8.90869 48.1759 9.35858 48.1759 9.89691ZM60.6114 11.7715C61.0305 11.7715 61.3708 11.7253 61.6323 11.633C62.1283 11.4561 62.3763 11.1274 62.3763 10.6467C62.3763 10.366 62.2533 10.1488 62.0072 9.99496C61.7611 9.845 61.3746 9.71234 60.8478 9.59698L59.9481 9.39511C59.0637 9.19516 58.4523 8.9779 58.1139 8.74335C57.541 8.35113 57.2545 7.73782 57.2545 6.90341C57.2545 6.14206 57.5313 5.50952 58.0851 5.0058C58.6388 4.50207 59.452 4.25021 60.5248 4.25021C61.4208 4.25021 62.1841 4.48862 62.8147 4.96542C63.4491 5.43838 63.7817 6.12668 63.8125 7.0303H62.1052C62.0745 6.51889 61.8514 6.15552 61.4362 5.94018C61.1593 5.79791 60.8152 5.72678 60.4037 5.72678C59.9461 5.72678 59.5808 5.81906 59.3078 6.00363C59.0348 6.1882 58.8983 6.44583 58.8983 6.77652C58.8983 7.08029 59.0329 7.30716 59.3021 7.45712C59.4751 7.5571 59.8442 7.67438 60.4095 7.80896L61.8745 8.1608C62.5167 8.31461 63.0012 8.52032 63.328 8.77795C63.8356 9.17786 64.0894 9.75656 64.0894 10.5141C64.0894 11.2908 63.7914 11.9368 63.1953 12.4521C62.6032 12.9635 61.7649 13.2192 60.6806 13.2192C59.5732 13.2192 58.7022 12.9673 58.0678 12.4636C57.4333 11.956 57.1161 11.26 57.1161 10.3756H58.8118C58.8656 10.764 58.9714 11.0543 59.129 11.2466C59.4174 11.5965 59.9115 11.7715 60.6114 11.7715ZM68.1499 11.8291V13.0577L67.3713 13.0865C66.5945 13.1134 66.0639 12.9789 65.7793 12.6828C65.5948 12.4944 65.5025 12.204 65.5025 11.8118V7.94162H64.6258V6.77075H65.5025V5.01733H67.129V6.77075H68.1499V7.94162H67.129V11.2639C67.129 11.5215 67.1617 11.683 67.2271 11.7484C67.2924 11.8099 67.4924 11.8407 67.8269 11.8407C67.8769 11.8407 67.9288 11.8407 67.9826 11.8407C68.0403 11.8368 68.0961 11.833 68.1499 11.8291ZM69.4419 7.39368C69.8764 6.83997 70.6224 6.56311 71.6798 6.56311C72.3681 6.56311 72.9795 6.69961 73.514 6.97263C74.0485 7.24564 74.3157 7.76089 74.3157 8.5184V11.4023C74.3157 11.6023 74.3196 11.8445 74.3272 12.1291C74.3388 12.3444 74.3715 12.4905 74.4253 12.5674C74.4791 12.6443 74.5599 12.7078 74.6675 12.7578V13H72.8795C72.8295 12.8731 72.7949 12.7539 72.7757 12.6424C72.7565 12.5309 72.7411 12.404 72.7296 12.2617C72.5027 12.5078 72.2412 12.7174 71.9451 12.8904C71.5914 13.0942 71.1915 13.1961 70.7454 13.1961C70.1763 13.1961 69.7053 13.0346 69.3323 12.7116C68.9632 12.3848 68.7786 11.9233 68.7786 11.3273C68.7786 10.5544 69.0766 9.99496 69.6726 9.64889C69.9995 9.46048 70.4801 9.3259 71.1146 9.24515L71.674 9.17593C71.9778 9.13748 72.1951 9.08942 72.3258 9.03174C72.5604 8.93176 72.6776 8.77603 72.6776 8.56454C72.6776 8.30691 72.5873 8.13004 72.4066 8.0339C72.2297 7.93393 71.9682 7.88394 71.6221 7.88394C71.2338 7.88394 70.9588 7.98007 70.7973 8.17233C70.682 8.31461 70.6051 8.50687 70.5666 8.74911H68.9805C69.0151 8.19925 69.1689 7.74744 69.4419 7.39368ZM70.6647 11.8118C70.8185 11.9387 71.0069 12.0022 71.2299 12.0022C71.5837 12.0022 71.9086 11.8983 72.2047 11.6907C72.5046 11.4831 72.6603 11.1043 72.6719 10.5544V9.94305C72.5681 10.0084 72.4623 10.0623 72.3546 10.1046C72.2508 10.143 72.1066 10.1795 71.9221 10.2141L71.5529 10.2834C71.2069 10.3449 70.9588 10.4199 70.8089 10.5083C70.5551 10.6583 70.4282 10.8909 70.4282 11.2062C70.4282 11.4869 70.507 11.6888 70.6647 11.8118ZM78.6589 11.8291V13.0577L77.8802 13.0865C77.1035 13.1134 76.5728 12.9789 76.2883 12.6828C76.1037 12.4944 76.0114 12.204 76.0114 11.8118V7.94162H75.1347V6.77075H76.0114V5.01733H77.638V6.77075H78.6589V7.94162H77.638V11.2639C77.638 11.5215 77.6707 11.683 77.736 11.7484C77.8014 11.8099 78.0013 11.8407 78.3359 11.8407C78.3859 11.8407 78.4378 11.8407 78.4916 11.8407C78.5493 11.8368 78.605 11.833 78.6589 11.8291ZM85.0958 11.1543C85.0535 11.5273 84.8593 11.906 84.5132 12.2906C83.9749 12.9019 83.2212 13.2076 82.2522 13.2076C81.4524 13.2076 80.7468 12.95 80.1354 12.4348C79.5241 11.9195 79.2184 11.0812 79.2184 9.91998C79.2184 8.83179 79.4933 7.99738 80.0432 7.41675C80.5969 6.83612 81.314 6.54581 82.1946 6.54581C82.7175 6.54581 83.1885 6.64386 83.6077 6.83997C84.0268 7.03607 84.3729 7.34561 84.6459 7.76858C84.892 8.14157 85.0515 8.57416 85.1246 9.06634C85.1669 9.35474 85.1842 9.77002 85.1765 10.3122H80.8737C80.8968 10.9428 81.0948 11.385 81.4678 11.6388C81.6947 11.7964 81.9677 11.8753 82.2868 11.8753C82.6252 11.8753 82.9002 11.7791 83.1116 11.5869C83.227 11.4831 83.3289 11.3389 83.4173 11.1543H85.0958ZM83.4692 9.22784C83.4423 8.79333 83.3097 8.46457 83.0713 8.24155C82.8367 8.01468 82.5445 7.90124 82.1946 7.90124C81.8139 7.90124 81.5178 8.02045 81.3063 8.25885C81.0987 8.49725 80.9679 8.82025 80.9141 9.22784H83.4692ZM90.6213 7.00146C91.1135 7.31677 91.3962 7.85895 91.4692 8.62799H89.8254C89.8023 8.4165 89.7427 8.24924 89.6466 8.12619C89.4659 7.90317 89.1582 7.79166 88.7237 7.79166C88.3661 7.79166 88.1104 7.84741 87.9566 7.95892C87.8066 8.07043 87.7317 8.20117 87.7317 8.35113C87.7317 8.53955 87.8124 8.67606 87.9739 8.76065C88.1354 8.84909 88.7064 9.00098 89.687 9.21631C90.3406 9.37012 90.8309 9.60275 91.1578 9.91421C91.4808 10.2295 91.6423 10.6237 91.6423 11.0966C91.6423 11.7195 91.4096 12.229 90.9443 12.6251C90.4829 13.0173 89.7677 13.2134 88.7987 13.2134C87.8105 13.2134 87.0799 13.0058 86.6069 12.5905C86.1378 12.1714 85.9033 11.6388 85.9033 10.9928H87.5702C87.6048 11.285 87.6798 11.4927 87.7951 11.6157C87.9989 11.8349 88.3757 11.9445 88.9256 11.9445C89.2486 11.9445 89.5043 11.8964 89.6927 11.8003C89.885 11.7042 89.9811 11.56 89.9811 11.3677C89.9811 11.1831 89.9042 11.0428 89.7504 10.9467C89.5966 10.8505 89.0256 10.6852 88.0374 10.4506C87.326 10.2737 86.8242 10.0526 86.532 9.78732C86.2397 9.52585 86.0936 9.14902 86.0936 8.65683C86.0936 8.0762 86.3205 7.57825 86.7742 7.16296C87.2318 6.74383 87.8739 6.53427 88.7007 6.53427C89.4851 6.53427 90.1253 6.69 90.6213 7.00146Z" fill="white"/>
</svg>
