<svg width="70" height="50" viewBox="0 0 70 50" fill="none" xmlns="http://www.w3.org/2000/svg">
<path fill-rule="evenodd" clip-rule="evenodd" d="M0 2.78398C0 1.24643 1.24643 0 2.78398 0H66.3827C67.9202 0 69.1667 1.24643 69.1667 2.78398V47.216C69.1667 48.7536 67.9202 50 66.3827 50H2.78398C1.24643 50 0 48.7536 0 47.216V2.78398ZM4.9986 13.196C4.9986 12.8116 5.31021 12.5 5.6946 12.5H63.4693C63.8537 12.5 64.1653 12.8116 64.1653 13.196V44.304C64.1653 44.6884 63.8537 45 63.4693 45H5.6946C5.31021 45 4.9986 44.6884 4.9986 44.304V13.196ZM6.66527 6.66691C7.58575 6.66691 8.33194 5.92071 8.33194 5.00024C8.33194 4.07976 7.58575 3.33357 6.66527 3.33357C5.7448 3.33357 4.9986 4.07976 4.9986 5.00024C4.9986 5.92071 5.7448 6.66691 6.66527 6.66691ZM13.3329 5.00024C13.3329 5.92071 12.5867 6.66691 11.6662 6.66691C10.7457 6.66691 9.99955 5.92071 9.99955 5.00024C9.99955 4.07976 10.7457 3.33357 11.6662 3.33357C12.5867 3.33357 13.3329 4.07976 13.3329 5.00024ZM16.6648 6.66691C17.5853 6.66691 18.3315 5.92071 18.3315 5.00024C18.3315 4.07976 17.5853 3.33357 16.6648 3.33357C15.7443 3.33357 14.9982 4.07976 14.9982 5.00024C14.9982 5.92071 15.7443 6.66691 16.6648 6.66691Z" fill="white"/>
</svg>
