<svg width="53" height="50" viewBox="0 0 53 50" fill="none" xmlns="http://www.w3.org/2000/svg">
<path d="M0 45.4736C0 41.6297 3.11608 38.5137 6.95995 38.5137H9.25608C13.1 38.5137 16.216 41.6297 16.216 45.4736V49.304C16.216 49.6884 15.9044 50 15.52 50H0.695996C0.311608 50 0 49.6884 0 49.304V45.4736Z" fill="white"/>
<path d="M36.4873 45.4736C36.4873 41.6297 39.6034 38.5137 43.4473 38.5137H45.7434C49.5873 38.5137 52.7033 41.6297 52.7033 45.4736V49.304C52.7033 49.6884 52.3917 50 52.0073 50H37.1833C36.7989 50 36.4873 49.6884 36.4873 49.304V45.4736Z" fill="white"/>
<circle cx="8.10787" cy="29.7294" r="6.08101" fill="white"/>
<circle cx="44.5942" cy="29.7294" r="6.08101" fill="white"/>
<path fill-rule="evenodd" clip-rule="evenodd" d="M0.695995 0C0.311608 0 0 0.311607 0 0.695995V16.8714C0 17.2558 0.311607 17.5674 0.695994 17.5674H4.05288V19.9409C4.05288 20.561 4.80256 20.8715 5.24101 20.4331L8.10672 17.5674H21.601C21.9854 17.5674 22.297 17.2558 22.297 16.8714V0.695995C22.297 0.311608 21.9854 0 21.601 0H0.695995ZM3 5C3 4.44772 3.44772 4 4 4H16C16.5523 4 17 4.44772 17 5C17 5.55228 16.5523 6 16 6H4C3.44772 6 3 5.55228 3 5ZM4 8C3.44772 8 3 8.44771 3 9C3 9.55229 3.44772 10 4 10H16C16.5523 10 17 9.55229 17 9C17 8.44771 16.5523 8 16 8H4Z" fill="white"/>
<path fill-rule="evenodd" clip-rule="evenodd" d="M52.0063 0C52.3907 0 52.7023 0.311607 52.7023 0.695995V16.8714C52.7023 17.2558 52.3907 17.5674 52.0063 17.5674H48.6494V19.9405C48.6494 20.5605 47.8998 20.871 47.4613 20.4326L44.5961 17.5674H31.1013C30.7169 17.5674 30.4053 17.2558 30.4053 16.8714V0.695995C30.4053 0.311608 30.7169 0 31.1013 0H52.0063ZM36 5C36 4.44772 36.4477 4 37 4H49C49.5523 4 50 4.44772 50 5C50 5.55228 49.5523 6 49 6H37C36.4477 6 36 5.55228 36 5ZM35 8C34.4477 8 34 8.44771 34 9C34 9.55229 34.4477 10 35 10H49C49.5523 10 50 9.55229 50 9C50 8.44771 49.5523 8 49 8H35Z" fill="white"/>
</svg>
