<svg width="37" height="50" viewBox="0 0 37 50" fill="none" xmlns="http://www.w3.org/2000/svg">
<path fill-rule="evenodd" clip-rule="evenodd" d="M2.78398 50C1.24643 50 0 48.7536 0 47.216V2.78398C0 1.24643 1.24643 0 2.78398 0H33.3606C34.8981 0 36.1446 1.24643 36.1446 2.78398V21.8063C36.073 21.8227 36.002 21.8415 35.9315 21.8626C35.5149 21.9876 35.127 22.1935 34.79 22.4684C34.6018 22.6219 34.4315 22.7953 34.2819 22.9852C34.0855 23.2344 34.1936 23.5867 34.4729 23.7371L36.1446 24.6371V26.9444L33.5485 25.5069C33.2816 25.3591 32.9457 25.4457 32.7838 25.7043C29.7313 30.5806 24.0514 39.7599 23.6375 40.8558C23.304 41.7388 23.6233 43.9446 23.9583 45.5889C24.0922 46.2458 24.7744 46.62 25.4016 46.3835C26.7643 45.8697 28.5163 45.1209 29.2486 44.504C29.9691 43.897 33.3251 38.1239 36.1446 33.1267V36.7853V47.216C36.1446 48.7536 34.8982 50 33.3606 50H2.78398ZM4.32812 7.3569C4.32812 6.63987 4.9094 6.05859 5.62643 6.05859H28.9959C29.713 6.05859 30.2942 6.63987 30.2942 7.3569C30.2942 8.07393 29.713 8.65521 28.9959 8.65521H5.62643C4.9094 8.65521 4.32812 8.07393 4.32812 7.3569ZM5.62643 11.252C4.9094 11.252 4.32812 11.8332 4.32812 12.5503C4.32812 13.2673 4.9094 13.8486 5.62643 13.8486H21.2061C21.9231 13.8486 22.5044 13.2673 22.5044 12.5503C22.5044 11.8332 21.9231 11.252 21.2061 11.252H5.62643ZM4.32812 17.7436C4.32812 17.0266 4.9094 16.4453 5.62643 16.4453H21.2061C21.9231 16.4453 22.5044 17.0266 22.5044 17.7436C22.5044 18.4607 21.9231 19.0419 21.2061 19.0419H5.62643C4.9094 19.0419 4.32812 18.4607 4.32812 17.7436ZM12.1267 25.1704C9.40626 24.7521 7.29438 26.4689 5.98944 28.2441C4.65444 30.0602 3.78716 32.3978 3.57671 34.3395C3.38395 36.1182 3.4191 38.2718 3.9674 40.1723C4.51101 42.0566 5.67962 44.0407 7.99098 44.7376C9.14288 45.085 10.2009 44.9829 11.117 44.5388C11.8093 44.2032 12.3376 43.7117 12.7338 43.2611C12.7778 43.4806 12.8329 43.7032 12.9033 43.9153C13.1002 44.5085 13.5926 45.5373 14.8134 45.8501C15.6125 46.0549 16.3314 45.9228 16.9213 45.6204C17.1677 45.4941 17.3842 45.3403 17.5626 45.1953C17.5903 45.2457 17.6192 45.2986 17.6496 45.3543L17.6661 45.3845L17.6662 45.3847C17.7769 45.5876 17.9061 45.8246 18.0446 46.059C18.3237 46.5319 18.7249 47.1463 19.2924 47.6287C19.9091 48.153 20.754 48.5446 21.7985 48.4472C22.746 48.3589 23.4425 47.5192 23.3542 46.5717C23.2676 45.6429 22.4591 44.9553 21.5347 45.0116L21.5246 45.0032C21.4091 44.905 21.2438 44.6995 21.0121 44.307C20.904 44.1239 20.7996 43.9326 20.6813 43.7157L20.6747 43.7037C20.56 43.4934 20.4276 43.2509 20.2896 43.0224C20.065 42.6507 19.617 41.9372 18.8705 41.5546C18.5224 41.3761 18.1229 41.2633 17.6878 41.27C17.256 41.2767 16.8901 41.3995 16.6043 41.546C16.385 41.6584 16.1847 41.8035 16.0191 41.9401C16.0155 41.9088 16.0118 41.8767 16.008 41.8437C16.0049 41.8162 16.0018 41.7882 15.9986 41.7595L15.9862 41.6462C15.9398 41.2188 15.8722 40.5952 15.7114 40.0805C15.6203 39.7888 15.4509 39.3602 15.1037 38.9852C14.7021 38.5515 14.1311 38.2677 13.4642 38.2677C12.8189 38.2677 12.3172 38.5335 11.9862 38.7806C11.6672 39.0188 11.4178 39.3054 11.2405 39.5274C11.0724 39.7379 10.9065 39.9715 10.7677 40.1671L10.7676 40.1672L10.7351 40.2129C10.5783 40.4336 10.4405 40.6255 10.2974 40.8043C10.0015 41.174 9.78328 41.3556 9.61383 41.4378C9.5081 41.489 9.34444 41.5463 8.98586 41.4382C8.27627 41.2242 7.66783 40.5666 7.27851 39.2171C6.89386 37.8838 6.84016 36.2115 7.0028 34.7109C7.14776 33.3733 7.79096 31.6118 8.76611 30.2852C9.77131 28.9177 10.7692 28.4483 11.6029 28.5765C12.4106 28.7007 12.8449 29.1141 13.1259 29.6336C13.444 30.2217 13.5386 30.9275 13.5198 31.3517C13.4776 32.3024 14.2141 33.1073 15.1648 33.1495C16.1155 33.1916 16.9204 32.4551 16.9625 31.5044C17.003 30.5926 16.831 29.2398 16.1569 27.9938C15.4458 26.6793 14.1622 25.4834 12.1267 25.1704ZM12.4191 41.0991C12.4163 41.0907 12.4147 41.0869 12.4146 41.0871C12.4145 41.0872 12.415 41.0886 12.416 41.0913C12.4167 41.0932 12.4177 41.0958 12.4191 41.0991ZM16.1946 42.886C16.1977 42.8934 16.1993 42.8966 16.1994 42.8964C16.1994 42.8963 16.199 42.8952 16.1982 42.8933C16.1974 42.8916 16.1962 42.8891 16.1946 42.886Z" fill="white"/>
</svg>
