<svg width="126" height="25" viewBox="0 0 126 25" fill="none" xmlns="http://www.w3.org/2000/svg">
<path d="M21.2239 21.8741V0H35.8119V3.03136H24.9738V9.30937H29.2358C29.6446 9.30953 30.0475 9.40807 30.4103 9.59668C30.7731 9.78529 31.0852 10.0584 31.3202 10.393L32.6424 12.284H24.9738V18.8471H35.8119V21.877L21.2239 21.8741Z" fill="white"/>
<path d="M58.728 21.8741V0H73.3146V3.03136H62.478V9.30937H66.7341C67.143 9.30953 67.5458 9.40807 67.9086 9.59668C68.2714 9.78529 68.5835 10.0584 68.8185 10.393L70.1407 12.284H62.478V18.8471H73.3146V21.877L58.728 21.8741Z" fill="white"/>
<path d="M45.3763 21.8741V3.03136H38.9397V0H55.5671V3.03136H49.1262V21.8741H45.3763Z" fill="white"/>
<path d="M113.309 1.5722e-05H117.527C117.746 -8.36035e-05 117.959 0.0687329 118.136 0.196686C118.314 0.324639 118.446 0.505219 118.515 0.712764L125.559 21.8741H121.616L115.966 4.16596H114.925L109.21 21.8741H105.24L112.315 0.711309C112.385 0.50321 112.518 0.322396 112.697 0.194665C112.875 0.0669332 113.089 -0.00118956 113.309 1.5722e-05Z" fill="white"/>
<path d="M83.4897 21.1628L76.4219 0H80.39L86.108 17.7082H87.1495L92.7991 0H96.7367L89.6892 21.1614C89.6204 21.3689 89.4879 21.5495 89.3106 21.6774C89.1333 21.8054 88.9202 21.8742 88.7015 21.8741H84.4832C84.2639 21.8749 84.0499 21.8066 83.8716 21.6789C83.6933 21.5512 83.5597 21.3707 83.4897 21.1628Z" fill="white"/>
<path d="M99.2935 21.8741V0H102.432V21.8741H99.2935Z" fill="white"/>
<path d="M14.2811 6.36392e-06V16.5445C14.2811 16.5908 14.2628 16.6352 14.23 16.6679C14.1973 16.7007 14.1529 16.719 14.1066 16.719C14.0769 16.7176 14.0479 16.7088 14.0225 16.6933C13.9971 16.6778 13.976 16.6561 13.9611 16.6303L4.83214 0.520749C4.74061 0.361911 4.60872 0.23009 4.44983 0.138641C4.29095 0.0471919 4.11071 -0.000634862 3.92739 6.36392e-06H0V19.7911H9.72247L8.39443 17.7998C8.16194 17.4512 7.84699 17.1654 7.47754 16.9677C7.10809 16.7701 6.69556 16.6667 6.27655 16.6667H3.74993V5.30489C3.74993 5.28942 3.75298 5.2741 3.7589 5.2598C3.76482 5.24551 3.7735 5.23252 3.78444 5.22158C3.79538 5.21064 3.80837 5.20196 3.82266 5.19604C3.83696 5.19012 3.85228 5.18707 3.86775 5.18707C3.88841 5.18747 3.90862 5.19316 3.92644 5.2036C3.94427 5.21404 3.95912 5.22888 3.96957 5.24671L13.1989 21.3548C13.2905 21.5129 13.4221 21.644 13.5803 21.7352C13.7386 21.8263 13.9181 21.8742 14.1008 21.8741H18.0282V6.36392e-06H14.2811Z" fill="white"/>
<path d="M11.802 24.9999H3.46142C2.98456 24.9999 2.51728 24.866 2.11278 24.6135C1.70827 24.361 1.38278 23.9999 1.17335 23.5715L0.344238 21.874H8.68485C9.16171 21.8741 9.62899 22.0079 10.0335 22.2605C10.438 22.513 10.7635 22.874 10.9729 23.3024L11.802 24.9999Z" fill="white"/>
<path d="M119.564 24.9999H111.231L112.3 22.5053C112.381 22.3181 112.514 22.1585 112.684 22.0463C112.854 21.9342 113.053 21.8742 113.257 21.874H117.583C117.79 21.8741 117.992 21.9357 118.164 22.051C118.335 22.1663 118.469 22.33 118.548 22.5213L119.564 24.9999Z" fill="white"/>
</svg>
