<svg width="32" height="21" viewBox="0 0 32 21" fill="none" xmlns="http://www.w3.org/2000/svg">
<path d="M0 19.25C0 20.2165 0.783502 21 1.75 21H29.75C30.7165 21 31.5 20.2165 31.5 19.25C31.5 18.2835 30.7165 17.5 29.75 17.5H1.75C0.783502 17.5 0 18.2835 0 19.25ZM0 10.5C0 11.4665 0.783502 12.25 1.75 12.25H29.75C30.7165 12.25 31.5 11.4665 31.5 10.5C31.5 9.5335 30.7165 8.75 29.75 8.75H1.75C0.783502 8.75 0 9.5335 0 10.5ZM1.75 0C0.783502 0 0 0.783502 0 1.75C0 2.7165 0.783502 3.5 1.75 3.5H29.75C30.7165 3.5 31.5 2.7165 31.5 1.75C31.5 0.783502 30.7165 0 29.75 0H1.75Z" fill="white"/>
</svg>
