<svg width="69" height="21" viewBox="0 0 69 21" fill="none" xmlns="http://www.w3.org/2000/svg">
<path d="M50.1589 0.860188C48.5554 0.279907 46.8604 -0.0112822 45.1537 0.000334333C39.6346 0.000334333 35.7366 2.76146 35.709 6.72502C35.6745 9.63688 38.479 11.2778 40.6004 12.2507C42.777 13.251 43.5049 13.8814 43.498 14.7755C43.4842 16.1355 41.7594 16.7521 40.1554 16.7521C37.9512 16.7521 36.7473 16.4472 34.895 15.6833L34.2085 15.3647L33.4255 19.9277C34.7673 20.4827 37.1854 20.9589 39.6828 21C45.5504 21 49.3862 18.256 49.4311 14.0389C49.4794 11.7129 47.9616 9.95548 44.7674 8.50297C42.8253 7.5609 41.6215 6.93057 41.6215 5.97479C41.6215 5.12864 42.6529 4.22425 44.8088 4.22425C46.2436 4.18977 47.6696 4.45712 48.993 5.00874L49.5104 5.23826L50.2934 0.829357L50.1589 0.860188ZM64.4812 0.370311H60.1693C58.8275 0.370311 57.8168 0.736864 57.2304 2.05919L48.9378 20.7157H54.8054L55.9782 17.6565L63.1393 17.6633C63.3084 18.3793 63.8258 20.7157 63.8258 20.7157H69L64.4812 0.370311ZM27.7718 0.199025H33.3634L29.8656 20.5547H24.2809L27.7718 0.192174V0.199025ZM13.5772 11.4183L14.1567 14.2445L19.6207 0.370311H25.5434L16.7438 20.6883H10.8348L6.00555 3.48429C5.92733 3.20061 5.74364 2.95698 5.49158 2.80257C3.75097 1.90962 1.90669 1.23197 0 0.784821L0.0758885 0.356606H9.07559C10.2967 0.404566 11.2798 0.784822 11.6075 2.07974L13.5737 11.4285L13.5772 11.4183ZM57.5822 13.4942L59.8106 7.8007C59.783 7.86236 60.2694 6.62568 60.5522 5.86174L60.9351 7.61914L62.2287 13.4908H57.5788L57.5822 13.4942Z" fill="#959595"/>
</svg>
