<svg width="84" height="21" viewBox="0 0 84 21" fill="none" xmlns="http://www.w3.org/2000/svg">
<path d="M9.48008 0L0 20.973H11.349L12.7559 17.6291H15.9719L17.3788 20.973H29.8709V18.4208L30.984 20.973H37.4459L38.559 18.3669V20.973H64.539L67.6981 17.7159L70.6561 20.973L84 21L74.49 10.5451L84 0H70.8631L67.7879 3.19694L64.923 0H36.6601L34.2332 5.41332L31.7493 0H20.424V2.46538L19.1642 0H9.48008ZM11.676 2.97819H17.2081L23.4962 17.2001V2.97819H29.5563L34.4132 13.1752L38.8893 2.97819H44.9192V18.0277H41.2501L41.2202 6.235L35.8711 18.0277H32.589L27.21 6.235V18.0277H19.662L18.231 14.6538H10.5001L9.07208 18.0248H5.02794L11.676 2.97819ZM48.276 2.97819H63.195L67.758 7.90567L72.4681 2.97819H77.0311L70.0981 10.5421L77.0311 18.0188H72.2611L67.6981 13.0341L62.964 18.0188H48.276V2.97819ZM14.3672 5.5245L11.8202 11.5348H16.9113L14.3672 5.5245ZM51.9601 6.09421V8.8415H60.0991V11.9036H51.9601V14.9028H61.0891L65.331 10.4852L61.2691 6.09159H51.9601V6.09421Z" fill="#959595"/>
</svg>
