<svg width="68" height="52" viewBox="0 0 68 52" fill="none" xmlns="http://www.w3.org/2000/svg">
<path fill-rule="evenodd" clip-rule="evenodd" d="M1.98455 0C0.888512 0 0 0.888511 0 1.98455V38.3294C0 39.4254 0.888511 40.3139 1.98455 40.3139H53.783C54.8791 40.3139 55.7676 39.4254 55.7676 38.3294V1.98455C55.7676 0.888512 54.8791 0 53.783 0H1.98455ZM6 10C4.89543 10 4 10.8954 4 12C4 13.1046 4.89543 14 6 14H30C31.1046 14 32 13.1046 32 12C32 10.8954 31.1046 10 30 10H6ZM4 19C4 17.8954 4.89543 17 6 17H30C31.1046 17 32 17.8954 32 19C32 20.1046 31.1046 21 30 21H6C4.89543 21 4 20.1046 4 19ZM5.37443 5.37544C6.11659 5.37544 6.71822 4.7738 6.71822 4.03164C6.71822 3.28948 6.11659 2.68785 5.37443 2.68785C4.63227 2.68785 4.03063 3.28948 4.03063 4.03164C4.03063 4.7738 4.63227 5.37544 5.37443 5.37544ZM10.7503 4.03164C10.7503 4.7738 10.1486 5.37544 9.40646 5.37544C8.6643 5.37544 8.06266 4.7738 8.06266 4.03164C8.06266 3.28948 8.6643 2.68785 9.40646 2.68785C10.1486 2.68785 10.7503 3.28948 10.7503 4.03164ZM13.4371 5.37544C14.1793 5.37544 14.7809 4.7738 14.7809 4.03164C14.7809 3.28948 14.1793 2.68785 13.4371 2.68785C12.6949 2.68785 12.0933 3.28948 12.0933 4.03164C12.0933 4.7738 12.6949 5.37544 13.4371 5.37544Z" fill="white"/>
<path d="M53.8028 10V25.2514H68L49.7465 52V36.514H36L53.8028 10Z" fill="url(#paint0_linear_1_5367)"/>
<defs>
<linearGradient id="paint0_linear_1_5367" x1="36" y1="52" x2="75.5643" y2="42.9047" gradientUnits="userSpaceOnUse">
<stop stop-color="#187AC9"/>
<stop offset="1" stop-color="#C5D6E3"/>
</linearGradient>
</defs>
</svg>
