<svg width="56" height="54" viewBox="0 0 56 54" fill="none" xmlns="http://www.w3.org/2000/svg">
<path fill-rule="evenodd" clip-rule="evenodd" d="M3.92289 18.4485H4.48443V37.7262H1.49481C0.669249 37.7262 0 38.3901 0 39.2091C0 40.0281 0.669249 40.692 1.49481 40.692L19.7642 40.692V37.7262H16.4429V18.4485H25.4118V26.2017C25.6568 26.1732 25.906 26.1586 26.1587 26.1586H28.4014V18.4485H34.3806V26.1586H37.3702V18.4485H37.9318C40.0983 18.4485 41.8547 16.7061 41.8547 14.5568C41.8547 13.2283 41.1715 11.9915 40.0426 11.2766L23.3404 0.698955C21.8688 -0.232984 19.9858 -0.232985 18.5143 0.698954L1.81201 11.2766C0.683197 11.9915 0 13.2283 0 14.5568C0 16.7061 1.75634 18.4485 3.92289 18.4485ZM37.3702 30.2278H34.3806V30.2279H37.3702V30.2278ZM28.4014 30.2278H26.1587C25.8991 30.2278 25.6494 30.2703 25.4163 30.3488C25.6493 30.2704 25.8988 30.2279 26.1582 30.2279H28.4014V30.2278ZM37.3702 37.5911V37.5913H34.3806V37.5911H37.3702ZM28.4014 37.5911V37.5913H25.4118V37.5911H28.4014ZM3.92289 15.4827H37.9318C38.4472 15.4827 38.865 15.0682 38.865 14.5568C38.865 14.2408 38.7025 13.9465 38.4339 13.7765L21.7317 3.19879C21.2412 2.88814 20.6135 2.88814 20.123 3.19879L3.4207 13.7765C3.15215 13.9465 2.98962 14.2408 2.98962 14.5568C2.98962 15.0682 3.40746 15.4827 3.92289 15.4827ZM7.47405 37.7262V18.4485H13.4533V37.7262H7.47405ZM17.9377 8.06817C17.1121 8.06817 16.4429 8.73209 16.4429 9.55107C16.4429 10.3701 17.1121 11.034 17.9377 11.034H23.9169C24.7425 11.034 25.4118 10.3701 25.4118 9.55107C25.4118 8.73209 24.7425 8.06817 23.9169 8.06817H17.9377Z" fill="white"/>
<path d="M26.1583 30.228C24.8741 30.228 23.833 31.2691 23.833 32.5533V33.7159H55.9991V32.5533C55.9991 31.2691 54.958 30.228 53.6738 30.228H26.1583Z" fill="url(#paint0_linear_1_5391)"/>
<path d="M55.9991 37.5913H23.833V51.1553C23.833 52.4396 24.8741 53.4806 26.1583 53.4806H53.6738C54.958 53.4806 55.9991 52.4396 55.9991 51.1553V37.5913Z" fill="url(#paint1_linear_1_5391)"/>
<defs>
<linearGradient id="paint0_linear_1_5391" x1="23.833" y1="53.4806" x2="59.4922" y2="38.5969" gradientUnits="userSpaceOnUse">
<stop stop-color="#187AC9"/>
<stop offset="1" stop-color="#C5D6E3"/>
</linearGradient>
<linearGradient id="paint1_linear_1_5391" x1="23.833" y1="53.4806" x2="59.4922" y2="38.5969" gradientUnits="userSpaceOnUse">
<stop stop-color="#187AC9"/>
<stop offset="1" stop-color="#C5D6E3"/>
</linearGradient>
</defs>
</svg>
