<svg width="41" height="55" viewBox="0 0 41 55" fill="none" xmlns="http://www.w3.org/2000/svg">
<circle cx="19.7239" cy="14.1018" r="2.06371" transform="rotate(90 19.7239 14.1018)" fill="white"/>
<path fill-rule="evenodd" clip-rule="evenodd" d="M11.6006 4.81532C11.6006 4.57974 11.5769 4.34968 11.5318 4.12742H28.867C28.8219 4.34968 28.7982 4.57974 28.7982 4.81532C28.7982 6.71491 30.3381 8.25483 32.2377 8.25483C32.4733 8.25483 32.7033 8.23115 32.9256 8.18603V30.5983H37.053V2.75161C37.053 1.23194 35.8211 0 34.3014 0H6.7853C5.26563 0 4.03369 1.23194 4.03369 2.75161V30.5983H8.16111V8.25483C10.0607 8.25483 11.6006 6.71491 11.6006 4.81532Z" fill="white"/>
<path fill-rule="evenodd" clip-rule="evenodd" d="M13.1667 30.5983H16.3406C16.3181 30.548 16.2965 30.4966 16.2758 30.444C16.1632 30.1581 16.0823 29.8489 16.0332 29.5165H14.9745V27.7516H16.0581C16.1193 27.4191 16.2149 27.1142 16.3449 26.837C16.5906 26.3131 16.9399 25.9095 17.3929 25.6261C17.8459 25.3427 18.3833 25.201 19.0052 25.201V27.0431C18.4754 27.0431 18.0685 27.1805 17.7844 27.4554C17.5004 27.7388 17.3583 28.1553 17.3583 28.7049C17.3583 29.1429 17.4428 29.4907 17.6117 29.7484C17.7883 30.0146 18.0378 30.1477 18.3603 30.1477C18.5906 30.1477 18.7748 30.0618 18.913 29.8901C19.0512 29.7183 19.1625 29.4864 19.247 29.1944C19.3391 28.911 19.4236 28.5976 19.5004 28.254C19.5771 27.9191 19.6693 27.5799 19.7767 27.2364C19.8842 26.8928 20.0224 26.5751 20.1913 26.2831C20.3602 25.9997 20.5829 25.7721 20.8593 25.6003C21.1433 25.4286 21.5003 25.3427 21.9303 25.3427C22.3756 25.3427 22.7748 25.4758 23.128 25.742C23.4888 26.0169 23.7729 26.399 23.9802 26.8885C24.0915 27.1515 24.1729 27.4392 24.2245 27.7516H25.293V29.5165H24.2085C24.1567 29.7862 24.0806 30.0439 23.9802 30.2894C23.937 30.3967 23.8899 30.4996 23.8388 30.5983H27.7895C27.9561 29.974 28.045 29.318 28.045 28.6411C28.045 24.462 24.6572 21.0742 20.4781 21.0742C16.299 21.0742 12.9111 24.462 12.9111 28.6411C12.9111 29.318 13 29.974 13.1667 30.5983ZM21.6539 30.5983V30.1606C21.9303 30.152 22.1606 30.0704 22.3449 29.9158C22.5291 29.7698 22.6673 29.5809 22.7595 29.349C22.8593 29.1257 22.9092 28.881 22.9092 28.6147C22.9092 28.2283 22.8285 27.9062 22.6673 27.6486C22.5061 27.3995 22.2758 27.275 21.9763 27.275C21.7614 27.275 21.5886 27.3609 21.4581 27.5327C21.3276 27.7044 21.2201 27.932 21.1357 28.2154C21.0589 28.5074 20.9821 28.8252 20.9053 29.1687C20.8362 29.5122 20.7479 29.8514 20.6405 30.1864C20.5991 30.3288 20.5504 30.4662 20.4945 30.5983H21.6539Z" fill="white"/>
<rect y="30.5981" width="40.3478" height="9.68346" rx="0.806955" fill="url(#paint0_linear_1_5406)"/>
<path d="M20.9808 42.7026C20.9808 42.257 20.6195 41.8957 20.1738 41.8957C19.7282 41.8957 19.3669 42.257 19.3669 42.7026L20.9808 42.7026ZM19.6032 54.5706C19.9184 54.8857 20.4293 54.8857 20.7444 54.5706L25.8799 49.4352C26.195 49.12 26.195 48.6091 25.8799 48.294C25.5647 47.9788 25.0538 47.9788 24.7387 48.294L20.1738 52.8588L15.609 48.294C15.2939 47.9788 14.7829 47.9788 14.4678 48.294C14.1527 48.6091 14.1527 49.12 14.4678 49.4352L19.6032 54.5706ZM19.3669 42.7026L19.3669 54L20.9808 54L20.9808 42.7026L19.3669 42.7026Z" fill="white"/>
<defs>
<linearGradient id="paint0_linear_1_5406" x1="2.10938e-06" y1="40.2816" x2="20.3531" y2="14.6939" gradientUnits="userSpaceOnUse">
<stop stop-color="#187AC9"/>
<stop offset="1" stop-color="#C5D6E3"/>
</linearGradient>
</defs>
</svg>
